<?xml version="1.0" standalone="no"?><!DOCTYPE svg PUBLIC "-//W3C//DTD SVG 1.1//EN" "http://www.w3.org/Graphics/SVG/1.1/DTD/svg11.dtd"><svg t="1776999403283" class="icon" viewBox="0 0 1024 1024" version="1.1" xmlns="http://www.w3.org/2000/svg" p-id="5617" xmlns:xlink="http://www.w3.org/1999/xlink" width="200" height="200"><path d="M0.05248 281.638046V102.44723a102.394752 102.394752 0 0 1 102.394752-102.394753h179.190817a24.062767 24.062767 0 0 1 25.598688 25.598688 24.062767 24.062767 0 0 1-25.598688 25.598688H102.447232a51.197376 51.197376 0 0 0-51.197376 51.197377v179.190816a24.062767 24.062767 0 0 1-25.598688 25.598688 24.062767 24.062767 0 0 1-25.598688-25.598688z m51.197376 460.776385v179.190817a51.197376 51.197376 0 0 0 51.197376 51.197376h179.190817a25.598688 25.598688 0 1 1 0 51.197376H102.447232a102.394752 102.394752 0 0 1-102.394752-102.394752v-179.190817a24.062767 24.062767 0 0 1 25.598688-25.598688 24.062767 24.062767 0 0 1 25.598688 25.598688z m691.164578 230.388193h179.190816a51.197376 51.197376 0 0 0 51.197377-51.197376v-179.190817a25.598688 25.598688 0 0 1 51.197376 0v179.190817a102.394752 102.394752 0 0 1-102.394753 102.394752h-179.190816a25.598688 25.598688 0 0 1 0-51.197376z m230.388193-870.355394a51.197376 51.197376 0 0 0-51.197377-51.197377h-179.190816a24.062767 24.062767 0 0 1-25.598688-25.598688 24.062767 24.062767 0 0 1 25.598688-25.598688h179.190816a102.394752 102.394752 0 0 1 102.394753 102.394753v179.190816a25.598688 25.598688 0 0 1-51.197376 0zM614.420994 204.841982H281.638049a24.062767 24.062767 0 0 0-25.598688 25.598688v563.171137a24.062767 24.062767 0 0 0 25.598688 25.598688h460.776385a24.062767 24.062767 0 0 0 25.598688-25.598688V358.43411h-102.394752a51.197376 51.197376 0 0 1-51.197376-51.197376z m143.352653 127.99344L640.019682 215.081457V307.236734a24.062767 24.062767 0 0 0 25.598688 25.598688z m-110.074359-145.912522l138.232916 138.232916a23.294806 23.294806 0 0 1 7.679606 17.919081V793.611807a51.197376 51.197376 0 0 1-51.197376 51.197377H281.638049a51.197376 51.197376 0 0 1-51.197376-51.197377V230.44067a51.197376 51.197376 0 0 1 51.197376-51.197376h348.142157a23.294806 23.294806 0 0 1 17.919082 7.679606zM563.223617 460.828863v-51.197377h-204.789504v51.197377h51.197376a24.062767 24.062767 0 0 1 25.598688 25.598688v127.99344h51.197376v-127.99344a24.062767 24.062767 0 0 1 25.598688-25.598688z m-51.197376 25.598688v127.99344a24.062767 24.062767 0 0 1-25.598688 25.598688h-51.197376a24.062767 24.062767 0 0 1-25.598688-25.598688v-127.99344h-51.197376a24.062767 24.062767 0 0 1-25.598688-25.598688v-51.197377a24.062767 24.062767 0 0 1 25.598688-25.598688h204.789504a24.062767 24.062767 0 0 1 25.598689 25.598688v51.197377a24.062767 24.062767 0 0 1-25.598689 25.598688z m-166.391472 204.789504h332.782945a12.799344 12.799344 0 1 1 0 25.598688h-332.782945a12.799344 12.799344 0 0 1 0-25.598688z" p-id="5618"></path></svg>