<?xml version="1.0" standalone="no"?><!DOCTYPE svg PUBLIC "-//W3C//DTD SVG 1.1//EN" "http://www.w3.org/Graphics/SVG/1.1/DTD/svg11.dtd"><svg t="1776047228111" class="icon" viewBox="0 0 1024 1024" version="1.1" xmlns="http://www.w3.org/2000/svg" p-id="8308" xmlns:xlink="http://www.w3.org/1999/xlink" width="200" height="200"><path d="M547.911907 851.829303a40.931808 40.931808 0 0 1-20.465905 11.000423 35.303685 35.303685 0 0 1-15.669207 3.197798 35.303685 35.303685 0 0 1-15.733164-3.197798 39.652689 39.652689 0 0 1-20.465904-11.000423L89.731478 466.04701a42.850487 42.850487 0 0 1 0-61.397712 42.850487 42.850487 0 0 1 61.397713 0l321.186782 321.122826V39.332909C472.315973 17.268107 489.58408 0 511.648883 0s39.332909 17.268107 39.332909 39.332909v686.439215l321.122827-321.122826a42.850487 42.850487 0 0 1 61.397712 0 42.850487 42.850487 0 0 1 0 61.397712L547.975863 851.893259z m436.179581 171.593814H39.334189A38.885218 38.885218 0 0 1 0.00128 984.090208c0-22.128759 17.268107-39.396865 39.332909-39.396866h944.629387c22.064803 0 39.332909 17.268107 39.332909 39.396866a38.885218 38.885218 0 0 1-39.204997 39.332909z" fill="#8F8F8F" p-id="8309"></path></svg>