<?xml version="1.0" standalone="no"?><!DOCTYPE svg PUBLIC "-//W3C//DTD SVG 1.1//EN" "http://www.w3.org/Graphics/SVG/1.1/DTD/svg11.dtd"><svg t="1775896884388" class="icon" viewBox="0 0 1024 1024" version="1.1" xmlns="http://www.w3.org/2000/svg" p-id="16473" xmlns:xlink="http://www.w3.org/1999/xlink" width="200" height="200"><path d="M0 0h1024v1024H0z" fill-opacity="0" p-id="16474"></path><path d="M512 930.67a413.51 413.51 0 0 1-162.53-33 422.81 422.81 0 0 1-223.1-223.1A413.38 413.38 0 0 1 93.3 512c0-21.06 13.61-34.67 34.67-34.67s34.66 13.61 34.66 34.67a345.1 345.1 0 0 0 27.57 135.66 352.68 352.68 0 0 0 186.1 186.1 347.57 347.57 0 0 0 271.33 0 352.68 352.68 0 0 0 186.1-186.1 347.55 347.55 0 0 0 0-271.32 352.68 352.68 0 0 0-186.1-186.1A345 345 0 0 0 512 162.67c-83.83 0-167.51 32.51-235.63 91.55l-17.54 15.2 109-5.45 0.45-0.08a39.57 39.57 0 0 1 6.46-0.54c18.06 0 31.16 13.06 31.16 31v0.66l0.11 0.66c1.73 10.37-0.65 20-6.7 27.16-5.71 6.74-14.16 10.45-23.81 10.45h-0.29l-115.2 8.54h-8.31c-51.43 0-94.78-39.86-98.69-90.75l-8.56-115.54-0.06-0.36c-1.73-10.38 0.65-20 6.7-27.16 5.71-6.75 14.16-10.46 23.81-10.46h0.66l0.65-0.11a39.57 39.57 0 0 1 6.46-0.54c18.06 0.1 31.16 13.1 31.16 31.1v0.5l10.48 83.85 11.37-10.1A434.91 434.91 0 0 1 365 122.64c49.16-19.45 100-29.31 151.19-29.31a415.74 415.74 0 0 1 384.3 257.16 403.66 403.66 0 0 1 30.14 161.36v0.15a413.38 413.38 0 0 1-33 162.54 422.81 422.81 0 0 1-223.1 223.1A413.52 413.52 0 0 1 512 930.67z" fill="#576B95" p-id="16475"></path></svg>