<svg xmlns="http://www.w3.org/2000/svg" width="1200" height="760" viewBox="0 0 1200 760" role="img" aria-label="After PDF preview">
  <defs>
    <linearGradient id="bg2" x1="0%" y1="0%" x2="100%" y2="100%">
      <stop offset="0%" style="stop-color:#075985"/>
      <stop offset="100%" style="stop-color:#1e3a8a"/>
    </linearGradient>
    <linearGradient id="paper2" x1="0%" y1="0%" x2="0%" y2="100%">
      <stop offset="0%" style="stop-color:#eff6ff"/>
      <stop offset="100%" style="stop-color:#dbeafe"/>
    </linearGradient>
  </defs>
  <rect width="1200" height="760" fill="url(#bg2)"/>
  <rect x="130" y="80" width="940" height="600" rx="16" fill="url(#paper2)" opacity="0.99"/>
  <rect x="180" y="140" width="410" height="22" rx="8" fill="#1e40af" opacity="0.9"/>
  <rect x="180" y="185" width="820" height="12" rx="6" fill="#1d4ed8" opacity="0.45"/>
  <rect x="180" y="210" width="790" height="12" rx="6" fill="#1d4ed8" opacity="0.42"/>
  <rect x="180" y="235" width="840" height="12" rx="6" fill="#1d4ed8" opacity="0.42"/>
  <rect x="180" y="275" width="400" height="260" rx="12" fill="#bfdbfe" opacity="0.7"/>
  <rect x="610" y="275" width="390" height="18" rx="8" fill="#1e3a8a" opacity="0.75"/>
  <rect x="610" y="305" width="350" height="12" rx="6" fill="#1d4ed8" opacity="0.5"/>
  <rect x="610" y="330" width="332" height="12" rx="6" fill="#1d4ed8" opacity="0.48"/>
  <rect x="610" y="355" width="320" height="12" rx="6" fill="#1d4ed8" opacity="0.46"/>
  <rect x="610" y="400" width="365" height="120" rx="12" fill="#dbeafe"/>
  <text x="600" y="648" text-anchor="middle" fill="#e0f2fe" font-family="system-ui,sans-serif" font-size="38" font-weight="700" opacity="0.95">AFTER</text>
  <text x="600" y="686" text-anchor="middle" fill="#bae6fd" font-family="system-ui,sans-serif" font-size="16" opacity="0.95">Translated PDF layout (target)</text>
</svg>
