<svg xmlns="http://www.w3.org/2000/svg" width="1200" height="760" viewBox="0 0 1200 760" role="img" aria-label="Before PDF preview">
  <defs>
    <linearGradient id="bg" x1="0%" y1="0%" x2="100%" y2="100%">
      <stop offset="0%" style="stop-color:#0f172a"/>
      <stop offset="100%" style="stop-color:#1e293b"/>
    </linearGradient>
    <linearGradient id="paper" x1="0%" y1="0%" x2="0%" y2="100%">
      <stop offset="0%" style="stop-color:#f8fafc"/>
      <stop offset="100%" style="stop-color:#e2e8f0"/>
    </linearGradient>
  </defs>
  <rect width="1200" height="760" fill="url(#bg)"/>
  <rect x="130" y="80" width="940" height="600" rx="16" fill="url(#paper)" opacity="0.98"/>
  <rect x="180" y="140" width="360" height="22" rx="8" fill="#334155" opacity="0.85"/>
  <rect x="180" y="185" width="820" height="12" rx="6" fill="#64748b" opacity="0.6"/>
  <rect x="180" y="210" width="780" height="12" rx="6" fill="#64748b" opacity="0.55"/>
  <rect x="180" y="235" width="805" height="12" rx="6" fill="#64748b" opacity="0.55"/>
  <rect x="180" y="275" width="400" height="260" rx="12" fill="#cbd5e1" opacity="0.6"/>
  <rect x="610" y="275" width="390" height="18" rx="8" fill="#475569" opacity="0.65"/>
  <rect x="610" y="305" width="350" height="12" rx="6" fill="#64748b" opacity="0.55"/>
  <rect x="610" y="330" width="332" height="12" rx="6" fill="#64748b" opacity="0.52"/>
  <rect x="610" y="355" width="320" height="12" rx="6" fill="#64748b" opacity="0.5"/>
  <rect x="610" y="400" width="365" height="120" rx="12" fill="#e2e8f0"/>
  <text x="600" y="648" text-anchor="middle" fill="#f8fafc" font-family="system-ui,sans-serif" font-size="38" font-weight="700" opacity="0.9">BEFORE</text>
  <text x="600" y="686" text-anchor="middle" fill="#cbd5e1" font-family="system-ui,sans-serif" font-size="16" opacity="0.95">Original PDF layout (source)</text>
</svg>
