<?xml version="1.0" standalone="no"?><!DOCTYPE svg PUBLIC "-//W3C//DTD SVG 1.1//EN" "http://www.w3.org/Graphics/SVG/1.1/DTD/svg11.dtd"><svg t="1775877533028" class="icon" viewBox="0 0 1024 1024" version="1.1" xmlns="http://www.w3.org/2000/svg" p-id="2683" xmlns:xlink="http://www.w3.org/1999/xlink" width="200" height="200"><path d="M512 0C230.008471 0 0 230.008471 0 512s230.008471 512 512 512 512-230.008471 512-512S793.991529 0 512 0z m0 810.164706c-164.231529 0-298.164706-133.963294-298.164706-298.164706 0-157.846588 123.753412-287.683765 279.220706-297.532235V134.144c0-14.426353-1.867294-28.943059 5.541647-36.352a18.944 18.944 0 0 1 26.774588-0.030118l133.903059 133.903059c1.626353 1.626353 13.402353 13.402353 0 26.804706l-133.903059 133.903059a18.974118 18.974118 0 0 1-26.804706 0c-7.378824-7.378824-5.541647-19.576471-5.541647-30.991059V282.895059c-117.76 9.728-210.913882 108.875294-210.913882 229.104941 0 126.614588 103.273412 229.888 229.888 229.888s229.888-103.273412 229.888-229.888c0-23.612235-3.493647-46.230588-9.999059-67.343059a229.376 229.376 0 0 0-29.665882-61.379765c-27.346824-40.267294 29.184-78.667294 56.560941-38.4a297.441882 297.441882 0 0 1 38.189176 79.781648c8.553412 27.828706 13.191529 57.193412 13.19153 87.341176 0 164.201412-133.933176 298.164706-298.164706 298.164706z" fill="#A8A8A8" p-id="2684"></path></svg>